<svg xmlns="http://www.w3.org/2000/svg" viewBox="0 0 128 128" role="img" aria-label="Socrates">
  <defs>
    <linearGradient id="g" x1="0%" y1="0%" x2="100%" y2="100%">
      <stop offset="0%" stop-color="#0d9b85" />
      <stop offset="100%" stop-color="#0d6c5e" />
    </linearGradient>
  </defs>
  <rect width="128" height="128" rx="30" fill="#f4efe5" />
  <rect x="18" y="18" width="92" height="92" rx="24" fill="url(#g)" />
  <path
    d="M76.6 44.4c-3.1-2.7-7.8-4.2-13.4-4.2-5.5 0-10.2 1.4-14.1 4.4-3.9 2.9-5.8 6.8-5.8 11.8 0 5 2.2 8.8 6.7 11.4 2.5 1.5 6.5 2.8 12 3.8 4.1.7 6.8 1.5 8.1 2.4 1.3.8 2 2 2 3.6 0 1.9-.8 3.4-2.5 4.5-1.7 1.1-3.9 1.7-6.8 1.7-4.1 0-7.1-.9-9-2.7-1.2-1.1-2-2.6-2.4-4.6H39.8c.2 5 2 9.1 5.5 12.3 3.5 3.2 8.9 4.8 16.2 4.8 7.4 0 13-1.7 16.7-5 3.8-3.4 5.7-7.5 5.7-12.5 0-4.7-1.8-8.2-5.4-10.7-2.3-1.5-6.1-2.8-11.5-3.9l-5.7-1.2c-3.3-.7-5.5-1.4-6.7-2.1-1.1-.7-1.7-1.8-1.7-3.1 0-1.7.8-3.2 2.3-4.4 1.5-1.2 3.6-1.8 6.3-1.8 4 0 6.9 1 8.6 3 1 1.1 1.6 2.4 1.9 3.8h11.7c-.4-5.2-2.1-9.2-5.2-11.9Z"
    fill="#fbf7ef"
  />
</svg>

